<svg width="25" height="31" viewBox="0 0 25 31" fill="none" xmlns="http://www.w3.org/2000/svg">
<path d="M3.57984 29.2375C-0.0476319 27.1432 -0.925788 21.8495 1.62217 17.4363L9.54329 3.71657C11.3651 0.561024 14.9488 -0.784641 17.5426 0.712855C20.1363 2.21035 20.7627 5.98673 18.9409 9.14228L11.0198 22.8621C9.93062 24.7485 7.77082 25.5595 6.22022 24.6643C4.66961 23.769 4.29206 21.4931 5.38121 19.6066L12.6422 7.03017L14.5218 8.11531L7.26073 20.6918C6.89768 21.3206 7.02353 22.0792 7.5404 22.3777C8.05727 22.6761 8.7772 22.4057 9.14025 21.7769L17.0614 8.05714C18.1505 6.17067 17.773 3.89473 16.2224 2.99948C14.6718 2.10424 12.512 2.91525 11.4228 4.80171L3.50169 18.5215C1.67984 21.677 2.30629 25.4534 4.90003 26.9509C7.49377 28.4484 11.0774 27.1027 12.8993 23.9472L22.1406 7.94079L24.0201 9.02594L14.7788 25.0323C12.2309 29.4455 7.20732 31.3319 3.57984 29.2375Z" fill="#5B6A99"/>
</svg>
