<svg width="45" height="142" viewBox="0 0 45 142" fill="none" xmlns="http://www.w3.org/2000/svg">
<path d="M-408.174 1.04939V1.04939C-402.734 8.46768 -395.425 14.312 -386.992 17.9873L-377.231 22.2412C-376.14 22.7167 -375.12 23.3402 -374.199 24.0941L-367.936 29.2215C-364.428 32.0927 -359.149 30.818 -357.338 26.6629V26.6629C-356.535 24.8198 -354.961 23.4237 -353.035 22.846L-346.997 21.0348C-343.679 20.0394 -340.218 22.0884 -339.494 25.4763V25.4763C-339.095 27.3469 -337.817 28.9099 -336.064 29.6741L-331.894 31.4914C-330.807 31.965 -329.782 32.5676 -328.839 33.2862L-328.235 33.7464C-324.017 36.962 -321.166 41.6505 -320.253 46.8758L-319.258 52.5685C-318.592 56.3787 -316.613 59.8355 -313.665 62.3393L-311.173 64.4557C-308.199 66.9815 -304.102 67.7258 -300.429 66.4075V66.4075C-295.258 64.5513 -289.514 66.8317 -287.024 71.7293L-285.225 75.2674C-284.157 77.3673 -283.585 79.6839 -283.553 82.0393L-283.419 91.8499L-283.597 94.0702C-284.019 99.3373 -278.82 103.255 -273.873 101.398V101.398C-272.367 100.833 -271.094 99.7802 -270.255 98.4078L-261.066 83.3768V83.3768C-259.627 80.0746 -254.926 80.1247 -253.557 83.4568L-253.018 84.7697C-252.366 86.3567 -250.898 87.4595 -249.193 87.6433L-243.754 88.2293C-240.412 88.5895 -238.378 92.09 -239.722 95.1723V95.1723C-240.284 96.4623 -240.282 97.9337 -239.559 99.1408C-237.933 101.853 -234.744 106.273 -229.776 111.025C-228.215 112.518 -226.543 113.749 -224.856 114.758C-217.607 119.093 -211.141 105.135 -203.399 108.509V108.509C-201.426 109.369 -196.22 109.373 -191.756 109.155C-188.414 108.991 -185.059 109.496 -181.992 110.833L-166.686 117.504C-165.15 118.173 -163.363 117.471 -162.694 115.935V115.935C-161.619 113.469 -158.103 113.52 -157.1 116.016L-156.596 117.27C-156.244 118.146 -155.561 118.849 -154.695 119.227L-151.907 120.442C-150.305 121.14 -148.561 121.447 -146.818 121.338L-138.184 120.8C-135.639 120.641 -133.237 121.99 -132.048 124.246L-129.789 128.533C-129.221 129.611 -129.703 130.944 -130.83 131.409V131.409C-132.517 132.105 -132.54 134.487 -130.867 135.216L-128.254 136.355V136.355C-125.181 137.694 -121.604 136.289 -120.264 133.215L-119.131 130.615C-118.333 128.784 -118.708 126.652 -120.083 125.204V125.204C-121.459 123.755 -121.834 121.624 -121.036 119.793L-119.811 116.984C-119.454 116.164 -118.985 115.399 -118.416 114.71L-113.788 109.102C-112.503 107.544 -110.344 107.02 -108.487 107.816L-105.931 108.911C-103.775 109.835 -101.442 108.036 -101.787 105.717V105.717C-102.028 104.092 -100.917 102.576 -99.2956 102.317L-93.9382 101.462C-91.0432 100.999 -88.1147 102.065 -86.1937 104.279L-70.8664 121.948C-67.7689 125.519 -62.9578 127.096 -58.3477 126.051L-56.3514 125.598C-54.2992 125.133 -52.5173 123.869 -51.4007 122.085L-47.8028 116.338C-46.5648 114.36 -43.7218 114.256 -42.3421 116.137V116.137C-42.2473 116.266 -42.1621 116.402 -42.0872 116.544L-41.9496 116.803C-39.289 121.824 -32.1761 122.042 -29.2125 117.194L-26.6128 112.942C-25.8407 111.679 -24.846 110.447 -23.4114 110.082C-21.9674 109.715 -20.6027 110.144 -20.8881 113.009C-21.1518 115.656 -20.663 119.127 -20.0545 122.033C-19.4378 124.979 -17.825 127.589 -15.7083 129.729L-8.05125 137.467C-5.90223 139.639 -2.48237 139.898 -0.0309852 138.074V138.074C1.73301 136.762 4.06453 136.494 6.08004 137.372L9.68733 138.944C14.4222 141.008 19.9311 140.054 23.696 136.518L30.7383 129.904L35.7929 124.626C39.025 121.252 41.6348 117.332 43.5018 113.048V113.048" stroke="#5B6A99" stroke-width="2"/>
</svg>
