<svg width="246" height="314" viewBox="0 0 246 314" fill="none" xmlns="http://www.w3.org/2000/svg">
<rect x="0.5" y="0.5" width="245" height="313" fill="#F5F7F6" stroke="#BFC4CE" stroke-dasharray="12 12"/>
<path d="M228.102 295.5C221.624 282.267 210.958 212.697 198.332 205.127C185.71 197.559 160.519 182.455 160.502 182.445C160.502 182.445 160.502 182.445 160.502 182.445C157.135 180.426 154.393 177.511 152.583 174.024C151.012 170.998 150.191 167.638 150.191 164.228V160.273C150.191 153.762 151.888 147.363 155.114 141.71L156.215 139.781C157.487 137.552 158.465 135.167 159.126 132.686L160.236 128.519C160.936 125.89 162.355 123.509 164.334 121.644C166.743 119.373 168.31 116.35 168.778 113.07L169.792 105.959V105.959C170.141 103.517 169.619 101.041 168.798 98.7141L168.778 98.6573C168.551 97.692 165.673 96.6697 165.673 96.6697C165.673 96.6697 165.607 95.1708 165.673 93.8869L166.146 71.8483C166.358 67.7616 165.788 63.672 164.465 59.8001L163.223 56.1633C161.974 52.5075 159.666 49.3067 156.594 46.9688L153.565 44.6632C152.149 43.5855 150.419 43.002 148.641 43.002C146.114 43.002 143.731 41.8269 142.191 39.8214L140.298 37.3581C137.989 34.3512 134.591 32.3736 130.839 31.8517L126.446 31.2407C123.768 30.8682 121.048 30.9284 118.389 31.4188L113.373 32.3442C109.359 33.0847 105.477 34.4199 101.855 36.3058C98.8919 37.8489 96.1273 39.748 93.6228 41.9611L93.4533 42.1108C87.2164 47.6217 82.7114 54.8273 80.4853 62.8528L79.8163 65.2647C78.5724 69.749 77.9418 74.3823 77.9418 79.0363V83.9483C77.9418 84.5844 79.2651 92.4291 79.9267 96.272C77.706 97.0132 76.4245 98.8539 75.8883 101.136L75.5643 102.515C75.2991 103.644 75.247 104.812 75.4108 105.959L76.4251 113.07C76.893 116.35 78.4601 119.373 80.8694 121.644C82.8481 123.509 84.2674 125.89 84.9676 128.519L86.0772 132.686C86.7378 135.167 87.7163 137.552 88.9883 139.781L90.0893 141.71C93.315 147.363 95.0118 153.762 95.0118 160.273V164.228C95.0118 167.638 94.1915 170.998 92.6205 174.024C90.8098 177.511 88.0682 180.426 84.7009 182.445L46.871 205.127C34.245 212.697 24.5789 282.267 18.1016 295.5" stroke="#CECDCA" stroke-width="3" stroke-linecap="round"/>
</svg>
